<svg xmlns="http://www.w3.org/2000/svg" xmlns:xlink="http://www.w3.org/1999/xlink" width="1080" zoomAndPan="magnify" viewBox="0 0 810 809.999993" height="1080" preserveAspectRatio="xMidYMid meet" version="1.2"><defs><clipPath id="f18ce434be"><path d="M 284.90625 284.90625 L 524.90625 284.90625 L 524.90625 524.90625 L 284.90625 524.90625 Z M 284.90625 284.90625 "/></clipPath><clipPath id="d0302c4f7d"><path d="M 338.652344 338.652344 L 471.402344 338.652344 L 471.402344 471.402344 L 338.652344 471.402344 Z M 338.652344 338.652344 "/></clipPath></defs><g id="b9868eccfd"><rect x="0" width="810" y="0" height="809.999993" style="fill:#ffffff;fill-opacity:1;stroke:none;"/><rect x="0" width="810" y="0" height="809.999993" style="fill:#56a5bb;fill-opacity:1;stroke:none;"/><path style=" stroke:none;fill-rule:nonzero;fill:#dddac5;fill-opacity:1;" d="M 780.335938 404.992188 C 572.933594 612.394531 236.695312 612.394531 29.320312 404.992188 C 236.71875 197.589844 572.960938 197.589844 780.335938 404.992188 Z M 780.335938 404.992188 "/><g clip-rule="nonzero" clip-path="url(#f18ce434be)"><path style=" stroke:none;fill-rule:nonzero;fill:#069754;fill-opacity:1;" d="M 404.90625 524.90625 C 338.90625 524.90625 284.90625 470.90625 284.90625 404.90625 C 284.90625 338.90625 338.90625 284.90625 404.90625 284.90625 C 470.90625 284.90625 524.90625 338.90625 524.90625 404.90625 C 524.90625 470.90625 470.90625 524.90625 404.90625 524.90625 Z M 404.90625 524.90625 "/></g><g clip-rule="nonzero" clip-path="url(#d0302c4f7d)"><path style=" stroke:none;fill-rule:nonzero;fill:#000000;fill-opacity:1;" d="M 404.996094 471.34375 C 368.507812 471.34375 338.652344 441.488281 338.652344 404.996094 C 338.652344 368.507812 368.507812 338.652344 404.996094 338.652344 C 441.488281 338.652344 471.34375 368.507812 471.34375 404.996094 C 471.34375 441.488281 441.488281 471.34375 404.996094 471.34375 Z M 404.996094 471.34375 "/></g></g></svg>