<svg xmlns="http://www.w3.org/2000/svg" xmlns:xlink="http://www.w3.org/1999/xlink" width="1080" zoomAndPan="magnify" viewBox="0 0 810 809.999993" height="1080" preserveAspectRatio="xMidYMid meet" version="1.2"><defs><clipPath id="b5140ebfb2"><path d="M 0 143 L 810 143 L 810 810 L 0 810 Z M 0 143 "/></clipPath><clipPath id="7ec66df896"><path d="M -139.257812 1338.972656 L -114.035156 117.484375 L 1035.472656 141.21875 L 1010.246094 1362.710938 Z M -139.257812 1338.972656 "/></clipPath><clipPath id="e3439e443d"><path d="M -139.257812 1338.972656 L -114.035156 117.484375 L 1035.472656 141.21875 L 1010.246094 1362.710938 Z M -139.257812 1338.972656 "/></clipPath><clipPath id="92088b2bb2"><path d="M 0 295 L 810 295 L 810 810 L 0 810 Z M 0 295 "/></clipPath><clipPath id="43072aa937"><path d="M 141.976562 -42.921875 L 1242.566406 603.722656 L 620.234375 1662.929688 L -480.355469 1016.28125 Z M 141.976562 -42.921875 "/></clipPath><clipPath id="b4be59961c"><path d="M 141.976562 -42.921875 L 1242.566406 603.722656 L 620.234375 1662.929688 L -480.355469 1016.28125 Z M 141.976562 -42.921875 "/></clipPath><clipPath id="19bda87dbb"><path d="M 0 453 L 810 453 L 810 810 L 0 810 Z M 0 453 "/></clipPath><clipPath id="8a35467001"><path d="M 11.316406 336.1875 L 960.921875 543.636719 L 798.613281 1286.617188 L -150.992188 1079.167969 Z M 11.316406 336.1875 "/></clipPath><clipPath id="0ea17ba917"><path d="M 11.316406 336.1875 L 960.921875 543.636719 L 798.613281 1286.617188 L -150.992188 1079.167969 Z M 11.316406 336.1875 "/></clipPath><clipPath id="e0d9978ac3"><path d="M 11.414062 336.210938 L 960.703125 543.589844 L 798.394531 1286.554688 L -150.894531 1079.175781 Z M 11.414062 336.210938 "/></clipPath><clipPath id="a790e5cb70"><path d="M 0 627 L 810 627 L 810 810 L 0 810 Z M 0 627 "/></clipPath><clipPath id="30bbc6b350"><path d="M 800.898438 485.328125 L 1035.351562 1481.867188 L 83.34375 1705.847656 L -151.109375 709.304688 Z M 800.898438 485.328125 "/></clipPath><clipPath id="53622cb294"><path d="M 800.898438 485.328125 L 1035.351562 1481.867188 L 83.34375 1705.847656 L -151.109375 709.304688 Z M 800.898438 485.328125 "/></clipPath></defs><g id="4a3a1200e2"><rect x="0" width="810" y="0" height="809.999993" style="fill:#ffffff;fill-opacity:1;stroke:none;"/><rect x="0" width="810" y="0" height="809.999993" style="fill:#f5df04;fill-opacity:1;stroke:none;"/><g clip-rule="nonzero" clip-path="url(#b5140ebfb2)"><g clip-rule="nonzero" clip-path="url(#7ec66df896)"><g clip-rule="nonzero" clip-path="url(#e3439e443d)"><path style=" stroke:none;fill-rule:nonzero;fill:#e64325;fill-opacity:1;" d="M -57.464844 1173.921875 C -12.632812 1220.921875 57.328125 1242.414062 120.8125 1228.699219 C 193.332031 1213.027344 256.941406 1155.46875 330.847656 1161.878906 C 416.382812 1169.289062 469.003906 1256.210938 539.992188 1304.515625 C 594.785156 1341.800781 665.992188 1356.140625 729.5625 1337.390625 C 793.136719 1318.636719 846.652344 1265.242188 860.253906 1200.378906 C 875.882812 1125.867188 840.460938 1048.441406 852.203125 973.226562 C 862.929688 904.445312 910.855469 848.492188 950.265625 791.113281 C 989.675781 733.738281 1023.035156 662.175781 1000.289062 596.378906 C 971.070312 511.886719 868.105469 481.949219 805.53125 418.109375 C 762.007812 373.707031 739.167969 313.683594 708.269531 259.707031 C 677.375 205.742188 631.546875 153.246094 569.992188 144.386719 C 470.464844 130.070312 394.691406 231.804688 299.402344 263.890625 C 229.53125 287.421875 151.476562 272.089844 80.914062 293.449219 C -44.753906 331.503906 -109.597656 474.300781 -117.625 605.359375 C -124.21875 713.019531 -99.246094 818.3125 -98.847656 925.460938 C -98.507812 1015.515625 -129.105469 1098.84375 -57.464844 1173.921875 Z M -57.464844 1173.921875 "/></g></g></g><g clip-rule="nonzero" clip-path="url(#92088b2bb2)"><g clip-rule="nonzero" clip-path="url(#43072aa937)"><g clip-rule="nonzero" clip-path="url(#b4be59961c)"><path style=" stroke:none;fill-rule:evenodd;fill:#069754;fill-opacity:1;" d="M 146.984375 1377.824219 C 23.46875 1300.84375 65.554688 1194.71875 30.242188 1102.597656 C -16.296875 980.085938 -126.132812 987.808594 -172.878906 913.644531 C -300.484375 710.898438 -125.160156 520.480469 79.722656 504.714844 C 293.65625 488.542969 375.265625 309.152344 463.183594 298.242188 C 676.820312 271.324219 641.464844 464.230469 838.671875 506.523438 C 1200.839844 584.496094 770.320312 887.5625 813.148438 1024.632812 C 876.5 1225.753906 733.167969 1381.21875 541.730469 1321.613281 C 397.46875 1276.945312 340.417969 1498.523438 146.984375 1377.824219 Z M 146.984375 1377.824219 "/></g></g></g><g clip-rule="nonzero" clip-path="url(#19bda87dbb)"><g clip-rule="nonzero" clip-path="url(#8a35467001)"><g clip-rule="nonzero" clip-path="url(#0ea17ba917)"><g clip-rule="nonzero" clip-path="url(#e0d9978ac3)"><path style=" stroke:none;fill-rule:nonzero;fill:#56a5bb;fill-opacity:1;" d="M 906.890625 640.082031 C 861.894531 574.746094 763.722656 600.125 705.53125 542.753906 C 554.308594 393.65625 441.710938 451.65625 316.273438 568.925781 C 264.707031 617.132812 239.378906 543.449219 166.066406 534.664062 C 119.527344 529.089844 19.308594 583.585938 -14.175781 631.277344 C -81.382812 727.015625 -104.332031 814.421875 -88.664062 892.773438 C -75.578125 958.222656 -26.722656 999.96875 8.339844 1013.566406 C 77.304688 1040.304688 158.25 997.164062 208.496094 1029.546875 C 300.996094 1089.167969 267.3125 1152.320312 342.246094 1185.109375 C 428.078125 1222.660156 460.960938 1096.253906 557.085938 1075.796875 C 629.542969 1062.269531 745.933594 1140.382812 813.59375 1040.691406 C 851.191406 985.285156 776.546875 937.160156 802.070312 878.191406 C 837.789062 795.679688 976.089844 740.554688 906.890625 640.082031 "/></g></g></g></g><g clip-rule="nonzero" clip-path="url(#a790e5cb70)"><g clip-rule="nonzero" clip-path="url(#30bbc6b350)"><g clip-rule="nonzero" clip-path="url(#53622cb294)"><path style=" stroke:none;fill-rule:nonzero;fill:#000000;fill-opacity:1;" d="M 825.230469 888.558594 C 810.230469 839.96875 794.65625 790.253906 763.878906 749.785156 C 733.101562 709.3125 683.460938 679.238281 633.0625 685.898438 C 608.140625 689.179688 584.082031 701.097656 559.058594 698.597656 C 541.945312 696.894531 526.316406 688.597656 511.011719 680.835938 C 418.203125 633.882812 303.121094 602.835938 213.1875 654.976562 C 198.613281 663.421875 185.089844 673.882812 169.523438 680.308594 C 145.078125 690.40625 117.597656 689.777344 91.988281 696.410156 C 86.820312 697.785156 81.746094 699.453125 76.765625 701.402344 C 71.785156 703.355469 66.929688 705.578125 62.203125 708.078125 C 57.472656 710.578125 52.898438 713.332031 48.480469 716.347656 C 44.0625 719.363281 39.828125 722.617188 35.777344 726.109375 C 31.726562 729.601562 27.886719 733.3125 24.253906 737.238281 C 20.621094 741.164062 17.222656 745.285156 14.054688 749.59375 C 10.886719 753.902344 7.972656 758.378906 5.308594 763.015625 C 2.648438 767.65625 0.253906 772.429688 -1.867188 777.339844 C -39.058594 865.207031 19.195312 962.910156 22.351562 1058.277344 C 24.21875 1114.664062 6.515625 1169.671875 -0.492188 1225.65625 C -7.5 1281.644531 -1.304688 1344.535156 38.996094 1384.011719 C 85.746094 1429.78125 161.496094 1428.902344 216.242188 1464.734375 C 255.109375 1490.175781 280.371094 1532.1875 317.726562 1559.804688 C 376.988281 1603.601562 457.339844 1604.953125 530.367188 1594.957031 C 583.878906 1587.625 644.578125 1568.816406 664.335938 1518.539062 C 672.988281 1496.203125 672.125 1470.574219 683.464844 1449.550781 C 708.671875 1402.914062 774.324219 1404.0625 823.84375 1385.132812 C 892.921875 1358.730469 935.773438 1283.949219 939.039062 1210.0625 C 944.121094 1093.964844 858.398438 996.023438 825.230469 888.558594 Z M 825.230469 888.558594 "/></g></g></g></g></svg>