<svg xmlns="http://www.w3.org/2000/svg" xmlns:xlink="http://www.w3.org/1999/xlink" width="1080" zoomAndPan="magnify" viewBox="0 0 810 809.999993" height="1080" preserveAspectRatio="xMidYMid meet" version="1.2"><defs><clipPath id="5893ab8320"><path d="M 195 215 L 456 215 L 456 528 L 195 528 Z M 195 215 "/></clipPath><clipPath id="b3ded03fad"><path d="M 134.011719 370.328125 L 345.914062 125.226562 L 571.722656 320.453125 L 359.820312 565.550781 Z M 134.011719 370.328125 "/></clipPath><clipPath id="6a6290cf18"><path d="M 134.011719 370.328125 L 345.914062 125.226562 L 571.722656 320.453125 L 359.820312 565.550781 Z M 134.011719 370.328125 "/></clipPath><clipPath id="706e6e4f67"><path d="M 67 451 L 361 451 L 361 726 L 67 726 Z M 67 451 "/></clipPath><clipPath id="a5f81dfe3c"><path d="M 130.6875 778.230469 L -19.351562 491.066406 L 245.210938 352.835938 L 395.25 640 Z M 130.6875 778.230469 "/></clipPath><clipPath id="71a206dfb1"><path d="M 130.6875 778.230469 L -19.351562 491.066406 L 245.210938 352.835938 L 395.25 640 Z M 130.6875 778.230469 "/></clipPath><clipPath id="1b48cfc4c5"><path d="M 30 25 L 388 25 L 388 317 L 30 317 Z M 30 25 "/></clipPath><clipPath id="cf24f4fef7"><path d="M 395.234375 313.640625 L 33.078125 321.976562 L 26.351562 29.550781 L 388.503906 21.21875 Z M 395.234375 313.640625 "/></clipPath><clipPath id="e65cab5d9d"><path d="M 395.234375 313.640625 L 33.078125 321.976562 L 26.351562 29.550781 L 388.503906 21.21875 Z M 395.234375 313.640625 "/></clipPath><clipPath id="5e0c83b8ce"><path d="M 618 348 L 798 348 L 798 562 L 618 562 Z M 618 348 "/></clipPath><clipPath id="85201ff0cb"><path d="M 557.589844 397.667969 L 763.875 321.925781 L 831.085938 504.976562 L 624.800781 580.71875 Z M 557.589844 397.667969 "/></clipPath><clipPath id="ebc7796319"><path d="M 557.589844 397.667969 L 763.875 321.925781 L 831.085938 504.976562 L 624.800781 580.71875 Z M 557.589844 397.667969 "/></clipPath><clipPath id="ebf4533654"><path d="M 406 521 L 731 521 L 731 789 L 406 789 Z M 406 521 "/></clipPath><clipPath id="4ae87de741"><path d="M 625.519531 884.683594 L 345.203125 722.203125 L 489.632812 473.035156 L 769.945312 635.515625 Z M 625.519531 884.683594 "/></clipPath><clipPath id="3b125162e9"><path d="M 625.519531 884.683594 L 345.203125 722.203125 L 489.632812 473.035156 L 769.945312 635.515625 Z M 625.519531 884.683594 "/></clipPath></defs><g id="2779b6c1c7"><rect x="0" width="810" y="0" height="809.999993" style="fill:#ffffff;fill-opacity:1;stroke:none;"/><rect x="0" width="810" y="0" height="809.999993" style="fill:#56a5bb;fill-opacity:1;stroke:none;"/><g clip-rule="nonzero" clip-path="url(#5893ab8320)"><g clip-rule="nonzero" clip-path="url(#b3ded03fad)"><g clip-rule="nonzero" clip-path="url(#6a6290cf18)"><path style=" stroke:none;fill-rule:nonzero;fill:#f5df04;fill-opacity:1;" d="M 273.238281 465.722656 C 178.023438 408.210938 163.421875 336.929688 268.304688 299.898438 C 292.027344 291.527344 304.867188 270.476562 315.414062 248.691406 C 357.007812 154.511719 524.566406 280.019531 422.867188 378.550781 C 406.101562 397.71875 400.738281 419.800781 397.796875 443.511719 C 394.054688 473.601562 402.832031 515.328125 366.800781 525.429688 C 326.949219 537.289062 296.042969 483.785156 273.238281 465.722656 Z M 273.238281 465.722656 "/></g></g></g><g clip-rule="nonzero" clip-path="url(#706e6e4f67)"><g clip-rule="nonzero" clip-path="url(#a5f81dfe3c)"><g clip-rule="nonzero" clip-path="url(#71a206dfb1)"><path style=" stroke:none;fill-rule:nonzero;fill:#000000;fill-opacity:1;" d="M 270.585938 683.824219 C 182.097656 751.230469 110.4375 738.601562 114.558594 627.453125 C 115.492188 602.316406 100.632812 582.632812 84.253906 564.816406 C 11.960938 491.515625 190.277344 381.828125 244.523438 512.628906 C 256.183594 535.265625 274.746094 548.371094 295.71875 559.824219 C 322.324219 574.363281 364.355469 581.542969 360.503906 618.761719 C 356.882812 660.183594 295.765625 669.253906 270.585938 683.824219 Z M 270.585938 683.824219 "/></g></g></g><path style=" stroke:none;fill-rule:nonzero;fill:#e64325;fill-opacity:1;" d="M 461.929688 452.691406 C 463.230469 454.050781 464.589844 455.335938 465.980469 456.570312 C 474.136719 463.695312 484.03125 468.765625 494.285156 472.328125 C 522.472656 482.074219 557.640625 481.765625 583.761719 466.238281 C 617.695312 446.089844 623.914062 404.460938 610.472656 369.503906 C 596.441406 332.984375 549.488281 327.648438 516.269531 337.328125 C 482.65625 347.117188 450.324219 373.714844 447.378906 410.621094 C 446.128906 426.304688 450.972656 441.253906 461.929688 452.691406 Z M 461.929688 452.691406 "/><g clip-rule="nonzero" clip-path="url(#1b48cfc4c5)"><g clip-rule="nonzero" clip-path="url(#cf24f4fef7)"><g clip-rule="nonzero" clip-path="url(#e65cab5d9d)"><path style=" stroke:none;fill-rule:nonzero;fill:#e64325;fill-opacity:1;" d="M 30.378906 200.96875 C 30.890625 219.128906 34.0625 237.332031 40.445312 254.363281 C 46.644531 270.910156 55.484375 287.40625 69.46875 298.65625 C 83.132812 309.648438 100.167969 315.0625 117.679688 314.308594 C 121.5625 314.140625 125.441406 313.667969 129.308594 313.105469 C 130.277344 313.257812 131.289062 313.242188 132.300781 313.042969 C 135.109375 312.488281 137.945312 312.097656 140.789062 311.792969 C 143.726562 311.523438 146.683594 311.316406 149.640625 311.085938 C 165.199219 315.941406 182.027344 318.511719 197.597656 313.1875 C 214.550781 307.386719 226.652344 292.949219 232.902344 276.535156 C 237.816406 263.621094 238.375 249.523438 243.179688 236.574219 C 243.609375 235.40625 244.089844 234.257812 244.601562 233.125 C 244.617188 233.128906 245.28125 231.796875 245.480469 231.4375 C 245.925781 230.632812 246.414062 229.851562 246.914062 229.082031 C 247.753906 227.785156 248.695312 226.5625 249.691406 225.382812 C 249.925781 225.136719 250.167969 224.890625 250.410156 224.648438 C 251.121094 223.9375 251.875 223.265625 252.640625 222.613281 C 253.320312 222.035156 254.027344 221.492188 254.742188 220.960938 C 254.917969 220.832031 255.09375 220.703125 255.273438 220.578125 C 255.410156 220.488281 255.546875 220.398438 255.640625 220.339844 C 257.277344 219.316406 259.007812 218.417969 260.710938 217.515625 C 264.03125 215.761719 267.429688 214.167969 270.867188 212.660156 C 274.351562 211.136719 277.882812 209.730469 281.4375 208.382812 C 281.742188 208.265625 282.046875 208.152344 282.351562 208.039062 C 282.378906 208.027344 282.402344 208.019531 282.429688 208.011719 C 283.292969 207.695312 284.160156 207.382812 285.027344 207.070312 C 286.914062 206.398438 288.800781 205.742188 290.695312 205.089844 C 297.992188 202.578125 305.328125 200.1875 312.609375 197.621094 C 327.3125 192.4375 342.058594 186.535156 354.875 177.515625 C 369.164062 167.457031 381.507812 153.535156 386.203125 136.402344 C 390.769531 119.753906 385.992188 102.53125 377.746094 87.914062 C 369.707031 73.660156 357.695312 61.441406 344.75 51.570312 C 329.679688 40.074219 312.46875 31.875 293.882812 28.050781 C 275.5625 24.28125 256.179688 25.824219 238.394531 31.40625 C 228.941406 34.375 219.839844 38.304688 211.183594 43.117188 C 202.414062 47.992188 194.242188 53.835938 186.273438 59.910156 C 179.5625 65.027344 173.023438 70.367188 166.296875 75.464844 C 166.246094 75.503906 166.195312 75.542969 166.144531 75.582031 C 165.945312 75.726562 165.554688 76.019531 165.351562 76.167969 C 164.5625 76.746094 163.769531 77.316406 162.976562 77.886719 C 161.265625 79.109375 159.53125 80.296875 157.78125 81.460938 C 154.441406 83.679688 151.007812 85.75 147.476562 87.644531 C 146.628906 88.097656 145.769531 88.535156 144.910156 88.96875 C 144.546875 89.148438 143.382812 89.691406 142.953125 89.898438 C 141.351562 90.597656 139.726562 91.25 138.089844 91.859375 C 134.527344 93.183594 130.871094 94.242188 127.164062 95.082031 C 127.148438 95.070312 125.164062 95.460938 124.648438 95.542969 C 123.578125 95.71875 122.5 95.867188 121.425781 96.003906 C 119.109375 96.296875 116.785156 96.457031 114.457031 96.621094 C 110.722656 96.882812 107.003906 97.304688 103.308594 97.898438 C 88.78125 100.222656 74.664062 105.246094 62.875 114.207031 C 51.085938 123.160156 42.679688 135.902344 37.648438 149.714844 C 31.746094 165.914062 29.894531 183.816406 30.378906 200.96875 Z M 30.378906 200.96875 "/></g></g></g><path style=" stroke:none;fill-rule:nonzero;fill:#dddac5;fill-opacity:1;" d="M 471.378906 82.53125 C 462.335938 98.304688 466.195312 118.4375 471.230469 136.058594 C 476.261719 153.683594 482.214844 172.574219 476.582031 189.996094 C 474.882812 195.265625 472.132812 200.277344 471.738281 205.820312 C 470.976562 216.40625 479.285156 225.808594 488.777344 229.585938 C 498.269531 233.359375 508.75 232.855469 518.902344 232.644531 C 529.058594 232.4375 539.6875 232.699219 548.621094 237.75 C 566.753906 248 571.285156 273.527344 586.734375 287.789062 C 598.472656 298.621094 615.371094 301.601562 630.890625 299.4375 C 646.410156 297.273438 660.964844 290.550781 675.273438 283.910156 C 696.464844 274.066406 717.824219 264.132812 736.707031 250.0625 C 754.265625 236.984375 769.75 219.964844 777.875 199.089844 C 786.003906 178.210938 785.921875 153.160156 774.441406 134.085938 C 765.019531 118.4375 748.097656 105.859375 747.59375 87.378906 C 747.296875 76.519531 753.074219 65.878906 751.179688 55.195312 C 746.851562 30.796875 713.570312 27.128906 694.988281 29.820312 C 672.75 33.042969 654.175781 46.136719 638.65625 62.414062 C 628.613281 72.941406 619.113281 86.121094 604.050781 88.242188 C 581.605469 91.402344 558.722656 74.289062 538.214844 67.324219 C 516.113281 59.816406 485.121094 58.554688 471.378906 82.53125 "/><g clip-rule="nonzero" clip-path="url(#5e0c83b8ce)"><g clip-rule="nonzero" clip-path="url(#85201ff0cb)"><g clip-rule="nonzero" clip-path="url(#ebc7796319)"><path style=" stroke:none;fill-rule:evenodd;fill:#f5df04;fill-opacity:1;" d="M 682.972656 353.375 C 676.085938 357.621094 671.988281 360.851562 668.929688 366.886719 C 658.894531 385.566406 662.1875 398.371094 657.398438 420.777344 C 651.488281 449.742188 645.699219 455.058594 632.832031 478.472656 C 631.0625 481.332031 629.917969 483.96875 628.46875 486.710938 C 616.4375 508.582031 611.515625 544.066406 638.363281 555.839844 C 643.746094 558.042969 649.199219 559.484375 656.207031 560.347656 C 662.820312 561.113281 669.289062 562.425781 676.558594 557.304688 C 681.585938 553.738281 685.5 548.117188 689.511719 543.699219 C 693.753906 538.945312 697.910156 533.976562 703.941406 530.285156 C 709.664062 526.710938 718.425781 522.757812 725.414062 521.667969 C 739.703125 519.371094 764.824219 529.320312 784.257812 509.402344 C 811.097656 481.851562 787.292969 462.074219 788.992188 432.195312 C 789.523438 421.183594 793.1875 403.367188 782.671875 391.984375 C 776.078125 384.574219 769.542969 384.023438 765.015625 382.242188 C 762.519531 381.191406 766.480469 380.476562 759.472656 379.605469 C 756.511719 379.21875 746.835938 374.90625 742.921875 371.914062 C 740.496094 370.101562 738.609375 367.84375 736.175781 365.050781 C 727.21875 354.082031 717.789062 351.398438 704.007812 349.332031 C 696.226562 348.253906 690.785156 348.777344 682.96875 353.371094 Z M 682.972656 353.375 "/></g></g></g><g clip-rule="nonzero" clip-path="url(#ebf4533654)"><g clip-rule="nonzero" clip-path="url(#4ae87de741)"><g clip-rule="nonzero" clip-path="url(#3b125162e9)"><path style=" stroke:none;fill-rule:evenodd;fill:#dddac5;fill-opacity:1;" d="M 456.832031 784.109375 C 468.15625 787.921875 475.6875 789.523438 485.433594 787.296875 C 516.125 781.058594 527.554688 765.230469 557.523438 749.515625 C 595.996094 728.875 607.5 730.425781 646.242188 722.9375 C 651.160156 722.242188 655.234375 721.054688 659.71875 720.113281 C 695.914062 713.121094 740.859375 685.210938 728.886719 643.601562 C 726.300781 635.40625 722.789062 627.855469 717.152344 619.078125 C 711.78125 610.84375 707.164062 602.261719 694.484375 598.84375 C 685.6875 596.5 675.605469 597.359375 666.796875 596.976562 C 657.398438 596.648438 647.832031 596.621094 637.941406 593.253906 C 628.476562 590.132812 615.71875 583.914062 607.882812 577.007812 C 591.78125 562.945312 579.359375 525.023438 538.390625 521.757812 C 481.761719 517.292969 481.773438 563.003906 446.238281 589.285156 C 433.226562 599.078125 409.535156 611.738281 406.539062 634.425781 C 404.347656 648.914062 409.890625 656.855469 412.144531 663.679688 C 413.308594 667.507812 408.757812 663.683594 414.386719 672.464844 C 416.738281 676.191406 420.976562 691.253906 421.277344 698.519531 C 421.511719 702.984375 420.726562 707.261719 419.851562 712.660156 C 415.851562 733.191406 421.707031 746.4375 432.375 764.035156 C 438.5 773.894531 444.230469 779.578125 456.828125 784.117188 Z M 456.832031 784.109375 "/></g></g></g></g></svg>