<svg xmlns="http://www.w3.org/2000/svg" xmlns:xlink="http://www.w3.org/1999/xlink" width="1080" zoomAndPan="magnify" viewBox="0 0 810 809.999993" height="1080" preserveAspectRatio="xMidYMid meet" version="1.2"><defs><clipPath id="d3671b5710"><path d="M 311.664062 311.664062 L 498.335938 311.664062 L 498.335938 498.335938 L 311.664062 498.335938 Z M 311.664062 311.664062 "/></clipPath><clipPath id="6da3f6b9b9"><path d="M 405 311.664062 C 353.453125 311.664062 311.664062 353.453125 311.664062 405 C 311.664062 456.546875 353.453125 498.335938 405 498.335938 C 456.546875 498.335938 498.335938 456.546875 498.335938 405 C 498.335938 353.453125 456.546875 311.664062 405 311.664062 Z M 405 311.664062 "/></clipPath><clipPath id="f6c8b3eba7"><path d="M 332.308594 333.289062 L 479.65625 333.289062 L 479.65625 480.640625 L 332.308594 480.640625 Z M 332.308594 333.289062 "/></clipPath><clipPath id="8ad027749c"><path d="M 405.984375 333.289062 C 365.292969 333.289062 332.308594 366.277344 332.308594 406.964844 C 332.308594 447.65625 365.292969 480.640625 405.984375 480.640625 C 446.671875 480.640625 479.65625 447.65625 479.65625 406.964844 C 479.65625 366.277344 446.671875 333.289062 405.984375 333.289062 Z M 405.984375 333.289062 "/></clipPath></defs><g id="b2694dbb84"><rect x="0" width="810" y="0" height="809.999993" style="fill:#ffffff;fill-opacity:1;stroke:none;"/><rect x="0" width="810" y="0" height="809.999993" style="fill:#069754;fill-opacity:1;stroke:none;"/><path style=" stroke:none;fill-rule:nonzero;fill:#000000;fill-opacity:1;" d="M 245.414062 276.070312 C 245.414062 276.070312 214.757812 160.664062 312.128906 139.027344 C 312.128906 139.027344 384.253906 104.765625 440.152344 207.546875 C 440.152344 207.546875 521.292969 128.132812 600.632812 204.804688 C 600.632812 204.804688 654.726562 247.214844 600.632812 342.78125 C 600.632812 342.78125 716.035156 366.222656 678.167969 476.214844 C 678.167969 476.214844 640.300781 564.570312 562.765625 542.929688 C 562.765625 542.929688 591.613281 638.496094 501.457031 681.773438 C 501.457031 681.773438 389.664062 705.214844 368.023438 615.054688 C 368.023438 615.054688 294.097656 688.984375 218.363281 631.285156 C 218.363281 631.285156 146.238281 550.144531 218.363281 483.425781 C 218.363281 483.425781 93.945312 445.5625 120.992188 351.796875 C 120.996094 351.796875 137.222656 263.441406 245.414062 276.070312 Z M 245.414062 276.070312 "/><path style=" stroke:none;fill-rule:nonzero;fill:#56a5bb;fill-opacity:1;" d="M 468.753906 409.03125 C 468.753906 410.132812 468.726562 411.230469 468.671875 412.332031 C 468.617188 413.429688 468.539062 414.527344 468.429688 415.625 C 468.320312 416.722656 468.1875 417.8125 468.027344 418.902344 C 467.863281 419.992188 467.675781 421.078125 467.460938 422.15625 C 467.246094 423.238281 467.003906 424.308594 466.738281 425.378906 C 466.46875 426.445312 466.175781 427.507812 465.855469 428.5625 C 465.539062 429.613281 465.191406 430.660156 464.820312 431.695312 C 464.449219 432.734375 464.054688 433.761719 463.632812 434.777344 C 463.210938 435.796875 462.765625 436.800781 462.292969 437.796875 C 461.824219 438.792969 461.328125 439.777344 460.808594 440.746094 C 460.289062 441.71875 459.746094 442.675781 459.183594 443.621094 C 458.617188 444.566406 458.027344 445.496094 457.414062 446.410156 C 456.804688 447.324219 456.167969 448.226562 455.511719 449.109375 C 454.855469 449.996094 454.179688 450.863281 453.480469 451.714844 C 452.78125 452.566406 452.0625 453.398438 451.324219 454.214844 C 450.585938 455.03125 449.824219 455.828125 449.046875 456.605469 C 448.269531 457.382812 447.472656 458.144531 446.65625 458.882812 C 445.839844 459.621094 445.007812 460.339844 444.15625 461.039062 C 443.304688 461.738281 442.4375 462.414062 441.550781 463.070312 C 440.667969 463.726562 439.765625 464.363281 438.851562 464.972656 C 437.9375 465.585938 437.007812 466.175781 436.0625 466.742188 C 435.117188 467.304688 434.160156 467.847656 433.1875 468.367188 C 432.21875 468.886719 431.234375 469.382812 430.238281 469.851562 C 429.242188 470.324219 428.238281 470.769531 427.21875 471.191406 C 426.203125 471.613281 425.175781 472.007812 424.136719 472.378906 C 423.101562 472.75 422.054688 473.097656 421.003906 473.414062 C 419.949219 473.734375 418.886719 474.027344 417.820312 474.296875 C 416.75 474.5625 415.679688 474.804688 414.597656 475.019531 C 413.519531 475.234375 412.433594 475.421875 411.34375 475.585938 C 410.253906 475.746094 409.164062 475.878906 408.066406 475.988281 C 406.972656 476.097656 405.871094 476.175781 404.773438 476.230469 C 403.671875 476.285156 402.574219 476.3125 401.472656 476.3125 C 400.371094 476.3125 399.269531 476.285156 398.171875 476.230469 C 397.070312 476.175781 395.972656 476.097656 394.875 475.988281 C 393.78125 475.878906 392.6875 475.746094 391.597656 475.585938 C 390.511719 475.421875 389.425781 475.234375 388.34375 475.019531 C 387.265625 474.804688 386.191406 474.5625 385.125 474.296875 C 384.054688 474.027344 382.996094 473.734375 381.941406 473.414062 C 380.886719 473.097656 379.839844 472.75 378.804688 472.378906 C 377.769531 472.007812 376.742188 471.613281 375.722656 471.191406 C 374.707031 470.769531 373.699219 470.324219 372.703125 469.851562 C 371.710938 469.382812 370.726562 468.886719 369.753906 468.367188 C 368.785156 467.847656 367.824219 467.304688 366.882812 466.742188 C 365.9375 466.175781 365.007812 465.585938 364.089844 464.972656 C 363.175781 464.363281 362.277344 463.726562 361.390625 463.070312 C 360.507812 462.414062 359.640625 461.738281 358.789062 461.039062 C 357.9375 460.339844 357.101562 459.621094 356.289062 458.882812 C 355.472656 458.144531 354.675781 457.382812 353.894531 456.605469 C 353.117188 455.828125 352.359375 455.03125 351.617188 454.214844 C 350.878906 453.398438 350.160156 452.566406 349.460938 451.714844 C 348.761719 450.863281 348.085938 449.996094 347.429688 449.109375 C 346.773438 448.226562 346.140625 447.324219 345.527344 446.410156 C 344.917969 445.496094 344.328125 444.566406 343.761719 443.621094 C 343.195312 442.675781 342.652344 441.71875 342.132812 440.746094 C 341.613281 439.777344 341.121094 438.792969 340.648438 437.796875 C 340.179688 436.800781 339.730469 435.796875 339.3125 434.777344 C 338.890625 433.761719 338.492188 432.734375 338.121094 431.695312 C 337.75 430.660156 337.40625 429.613281 337.085938 428.5625 C 336.765625 427.507812 336.472656 426.445312 336.207031 425.378906 C 335.9375 424.308594 335.695312 423.238281 335.480469 422.15625 C 335.265625 421.078125 335.078125 419.992188 334.917969 418.902344 C 334.757812 417.8125 334.621094 416.722656 334.511719 415.625 C 334.40625 414.527344 334.324219 413.429688 334.269531 412.332031 C 334.214844 411.230469 334.1875 410.132812 334.1875 409.03125 C 334.1875 407.929688 334.214844 406.828125 334.269531 405.730469 C 334.324219 404.628906 334.40625 403.53125 334.511719 402.433594 C 334.621094 401.339844 334.757812 400.246094 334.917969 399.15625 C 335.078125 398.070312 335.265625 396.984375 335.480469 395.902344 C 335.695312 394.824219 335.9375 393.75 336.207031 392.683594 C 336.472656 391.613281 336.765625 390.554688 337.085938 389.5 C 337.40625 388.445312 337.75 387.398438 338.121094 386.363281 C 338.492188 385.328125 338.890625 384.300781 339.3125 383.28125 C 339.730469 382.265625 340.179688 381.257812 340.648438 380.261719 C 341.121094 379.269531 341.613281 378.285156 342.132812 377.3125 C 342.652344 376.34375 343.195312 375.382812 343.761719 374.441406 C 344.328125 373.496094 344.917969 372.566406 345.527344 371.648438 C 346.140625 370.734375 346.773438 369.835938 347.429688 368.949219 C 348.085938 368.066406 348.761719 367.199219 349.460938 366.347656 C 350.160156 365.496094 350.878906 364.660156 351.617188 363.847656 C 352.359375 363.03125 353.117188 362.234375 353.894531 361.453125 C 354.675781 360.675781 355.472656 359.917969 356.289062 359.175781 C 357.101562 358.4375 357.9375 357.71875 358.789062 357.019531 C 359.640625 356.320312 360.507812 355.644531 361.390625 354.988281 C 362.277344 354.332031 363.175781 353.699219 364.089844 353.085938 C 365.007812 352.476562 365.9375 351.886719 366.882812 351.320312 C 367.824219 350.753906 368.785156 350.210938 369.753906 349.691406 C 370.726562 349.171875 371.710938 348.679688 372.703125 348.207031 C 373.699219 347.738281 374.707031 347.289062 375.722656 346.871094 C 376.742188 346.449219 377.769531 346.050781 378.804688 345.679688 C 379.839844 345.308594 380.886719 344.964844 381.941406 344.644531 C 382.996094 344.324219 384.054688 344.03125 385.125 343.765625 C 386.191406 343.496094 387.265625 343.253906 388.34375 343.039062 C 389.425781 342.824219 390.511719 342.636719 391.597656 342.476562 C 392.6875 342.316406 393.78125 342.179688 394.875 342.070312 C 395.972656 341.964844 397.070312 341.882812 398.171875 341.828125 C 399.269531 341.773438 400.371094 341.746094 401.472656 341.746094 C 402.574219 341.746094 403.671875 341.773438 404.773438 341.828125 C 405.871094 341.882812 406.972656 341.964844 408.066406 342.070312 C 409.164062 342.179688 410.253906 342.316406 411.34375 342.476562 C 412.433594 342.636719 413.519531 342.824219 414.597656 343.039062 C 415.679688 343.253906 416.75 343.496094 417.820312 343.765625 C 418.886719 344.03125 419.949219 344.324219 421.003906 344.644531 C 422.054688 344.964844 423.101562 345.308594 424.136719 345.679688 C 425.175781 346.050781 426.203125 346.449219 427.21875 346.871094 C 428.238281 347.289062 429.242188 347.738281 430.238281 348.207031 C 431.234375 348.679688 432.21875 349.171875 433.1875 349.691406 C 434.160156 350.210938 435.117188 350.753906 436.0625 351.320312 C 437.007812 351.886719 437.9375 352.476562 438.851562 353.085938 C 439.765625 353.699219 440.667969 354.332031 441.550781 354.988281 C 442.4375 355.644531 443.304688 356.320312 444.15625 357.019531 C 445.007812 357.71875 445.839844 358.4375 446.65625 359.175781 C 447.472656 359.917969 448.269531 360.675781 449.046875 361.453125 C 449.824219 362.234375 450.585938 363.03125 451.324219 363.847656 C 452.0625 364.660156 452.78125 365.496094 453.480469 366.347656 C 454.179688 367.199219 454.855469 368.066406 455.511719 368.949219 C 456.167969 369.835938 456.804688 370.734375 457.414062 371.648438 C 458.027344 372.566406 458.617188 373.496094 459.183594 374.441406 C 459.746094 375.382812 460.289062 376.34375 460.808594 377.3125 C 461.328125 378.285156 461.824219 379.269531 462.292969 380.261719 C 462.765625 381.257812 463.210938 382.265625 463.632812 383.28125 C 464.054688 384.300781 464.449219 385.328125 464.820312 386.363281 C 465.191406 387.398438 465.539062 388.445312 465.855469 389.5 C 466.175781 390.554688 466.46875 391.613281 466.738281 392.683594 C 467.003906 393.75 467.246094 394.824219 467.460938 395.902344 C 467.675781 396.984375 467.863281 398.070312 468.027344 399.15625 C 468.1875 400.246094 468.320312 401.339844 468.429688 402.433594 C 468.539062 403.53125 468.617188 404.628906 468.671875 405.730469 C 468.726562 406.828125 468.753906 407.929688 468.753906 409.03125 Z M 468.753906 409.03125 "/><g clip-rule="nonzero" clip-path="url(#d3671b5710)"><g clip-rule="nonzero" clip-path="url(#6da3f6b9b9)"><path style=" stroke:none;fill-rule:nonzero;fill:#f5df04;fill-opacity:1;" d="M 311.664062 311.664062 L 498.335938 311.664062 L 498.335938 498.335938 L 311.664062 498.335938 Z M 311.664062 311.664062 "/></g></g><g clip-rule="nonzero" clip-path="url(#f6c8b3eba7)"><g clip-rule="nonzero" clip-path="url(#8ad027749c)"><path style=" stroke:none;fill-rule:nonzero;fill:#56a5bb;fill-opacity:1;" d="M 332.308594 333.289062 L 479.660156 333.289062 L 479.660156 480.640625 L 332.308594 480.640625 Z M 332.308594 333.289062 "/></g></g></g></svg>