<svg xmlns="http://www.w3.org/2000/svg" xmlns:xlink="http://www.w3.org/1999/xlink" width="1080" zoomAndPan="magnify" viewBox="0 0 810 809.999993" height="1080" preserveAspectRatio="xMidYMid meet" version="1.2"><defs><clipPath id="ce2416ed26"><path d="M 157.179688 85 L 258 85 L 258 257 L 157.179688 257 Z M 157.179688 85 "/></clipPath><clipPath id="a6f3bf45f2"><path d="M 581 439 L 676.929688 439 L 676.929688 625 L 581 625 Z M 581 439 "/></clipPath><clipPath id="cd1e505468"><path d="M 402.75 317.972656 L 513.949219 317.972656 L 513.949219 429.171875 L 402.75 429.171875 Z M 402.75 317.972656 "/></clipPath><clipPath id="4f03bb11f0"><path d="M 458.347656 317.972656 C 427.644531 317.972656 402.75 342.863281 402.75 373.570312 C 402.75 404.277344 427.644531 429.171875 458.347656 429.171875 C 489.054688 429.171875 513.949219 404.277344 513.949219 373.570312 C 513.949219 342.863281 489.054688 317.972656 458.347656 317.972656 Z M 458.347656 317.972656 "/></clipPath><clipPath id="47d79ca3a5"><path d="M 414.75 329.972656 L 501.636719 329.972656 L 501.636719 416.859375 L 414.75 416.859375 Z M 414.75 329.972656 "/></clipPath><clipPath id="81571db7a8"><path d="M 458.191406 329.972656 C 434.199219 329.972656 414.75 349.421875 414.75 373.414062 C 414.75 397.40625 434.199219 416.859375 458.191406 416.859375 C 482.1875 416.859375 501.636719 397.40625 501.636719 373.414062 C 501.636719 349.421875 482.1875 329.972656 458.191406 329.972656 Z M 458.191406 329.972656 "/></clipPath></defs><g id="358cbb8a4a"><rect x="0" width="810" y="0" height="809.999993" style="fill:#ffffff;fill-opacity:1;stroke:none;"/><rect x="0" width="810" y="0" height="809.999993" style="fill:#069754;fill-opacity:1;stroke:none;"/><g clip-rule="nonzero" clip-path="url(#ce2416ed26)"><path style=" stroke:none;fill-rule:nonzero;fill:#dddac5;fill-opacity:1;" d="M 165.296875 101.40625 L 157.179688 243.339844 L 257.367188 256.238281 L 250.804688 85.933594 Z M 165.296875 101.40625 "/></g><path style=" stroke:none;fill-rule:nonzero;fill:#dddac5;fill-opacity:1;" d="M 265.878906 81.945312 L 270.121094 175.800781 L 402.570312 151.484375 L 385.988281 61.789062 Z M 265.878906 81.945312 "/><path style=" stroke:none;fill-rule:nonzero;fill:#dddac5;fill-opacity:1;" d="M 269.085938 192.203125 L 276.503906 257.445312 L 425.652344 255.585938 L 407.003906 168.230469 Z M 269.085938 192.203125 "/><path style=" stroke:none;fill-rule:nonzero;fill:#dddac5;fill-opacity:1;" d="M 230.535156 412.089844 L 321.386719 403.265625 L 453.050781 382.742188 L 486.96875 510.855469 L 351.886719 542.140625 L 262.980469 554.929688 Z M 230.535156 412.089844 "/><path style=" stroke:none;fill-rule:nonzero;fill:#dddac5;fill-opacity:1;" d="M 427.75 270.265625 L 448.835938 366.832031 L 320.96875 388.144531 L 301.578125 277.6875 Z M 427.75 270.265625 "/><path style=" stroke:none;fill-rule:nonzero;fill:#dddac5;fill-opacity:1;" d="M 186.601562 266.464844 L 179.898438 396.824219 L 221.296875 397.507812 L 259.511719 274.488281 Z M 186.601562 266.464844 "/><path style=" stroke:none;fill-rule:nonzero;fill:#dddac5;fill-opacity:1;" d="M 291.957031 277.785156 L 311.757812 390.582031 L 236.445312 398.875 L 273.402344 276.1875 Z M 291.957031 277.785156 "/><path style=" stroke:none;fill-rule:nonzero;fill:#dddac5;fill-opacity:1;" d="M 218.53125 415.265625 L 248.671875 558.421875 L 168.121094 567.800781 L 169.660156 411.179688 Z M 218.53125 415.265625 "/><path style=" stroke:none;fill-rule:nonzero;fill:#dddac5;fill-opacity:1;" d="M 266.75 569.164062 L 310.761719 763.601562 L 340.003906 761.238281 L 380.199219 750.59375 L 343.933594 559.480469 Z M 266.75 569.164062 "/><path style=" stroke:none;fill-rule:nonzero;fill:#dddac5;fill-opacity:1;" d="M 355.65625 556.378906 L 377.878906 674.148438 L 520.226562 636.457031 L 491.625 528.441406 Z M 355.65625 556.378906 "/><path style=" stroke:none;fill-rule:nonzero;fill:#dddac5;fill-opacity:1;" d="M 381.648438 688.382812 L 524.660156 653.203125 L 542.152344 702.335938 L 458.910156 729.753906 L 393.59375 747.046875 Z M 381.648438 688.382812 "/><path style=" stroke:none;fill-rule:nonzero;fill:#dddac5;fill-opacity:1;" d="M 470.015625 379.144531 L 542.582031 362.171875 L 611.425781 622.167969 L 538.527344 637.886719 Z M 470.015625 379.144531 "/><path style=" stroke:none;fill-rule:nonzero;fill:#dddac5;fill-opacity:1;" d="M 398.648438 58.441406 L 418.480469 147.273438 L 455.324219 137.515625 L 455.316406 46.121094 Z M 398.648438 58.441406 "/><path style=" stroke:none;fill-rule:nonzero;fill:#dddac5;fill-opacity:1;" d="M 423.210938 165.136719 L 609.070312 123.691406 L 631.535156 208.542969 L 441.816406 254.59375 Z M 423.210938 165.136719 "/><path style=" stroke:none;fill-rule:nonzero;fill:#dddac5;fill-opacity:1;" d="M 445.382812 268.058594 L 465.582031 362.398438 L 656.1875 319.695312 L 631.355469 225.914062 Z M 445.382812 268.058594 "/><path style=" stroke:none;fill-rule:nonzero;fill:#dddac5;fill-opacity:1;" d="M 554.640625 360.324219 L 577.695312 447.40625 L 661.433594 425.234375 L 659.585938 332.535156 Z M 554.640625 360.324219 "/><g clip-rule="nonzero" clip-path="url(#a6f3bf45f2)"><path style=" stroke:none;fill-rule:nonzero;fill:#dddac5;fill-opacity:1;" d="M 581.246094 460.804688 L 659.953125 439.964844 L 676.953125 610.195312 L 624.476562 624.085938 Z M 581.246094 460.804688 "/></g><g clip-rule="nonzero" clip-path="url(#cd1e505468)"><g clip-rule="nonzero" clip-path="url(#4f03bb11f0)"><path style=" stroke:none;fill-rule:nonzero;fill:#069754;fill-opacity:1;" d="M 402.75 317.972656 L 513.949219 317.972656 L 513.949219 429.171875 L 402.75 429.171875 Z M 402.75 317.972656 "/></g></g><g clip-rule="nonzero" clip-path="url(#47d79ca3a5)"><g clip-rule="nonzero" clip-path="url(#81571db7a8)"><path style=" stroke:none;fill-rule:nonzero;fill:#f5df04;fill-opacity:1;" d="M 414.75 329.972656 L 501.636719 329.972656 L 501.636719 416.859375 L 414.75 416.859375 Z M 414.75 329.972656 "/></g></g></g></svg>