<svg xmlns="http://www.w3.org/2000/svg" xmlns:xlink="http://www.w3.org/1999/xlink" width="1080" zoomAndPan="magnify" viewBox="0 0 810 809.999993" height="1080" preserveAspectRatio="xMidYMid meet" version="1.2"><g id="c96e68bde9"><rect x="0" width="810" y="0" height="809.999993" style="fill:#ffffff;fill-opacity:1;stroke:none;"/><rect x="0" width="810" y="0" height="809.999993" style="fill:#e64325;fill-opacity:1;stroke:none;"/><rect x="0" width="810" y="0" height="809.999993" style="fill:#e4dbc7;fill-opacity:1;stroke:none;"/><path style=" stroke:none;fill-rule:nonzero;fill:#e64325;fill-opacity:1;" d="M 378.105469 78.742188 C 372.21875 79.089844 365.417969 80.484375 361.175781 82.160156 C 360.828125 82.285156 359.691406 82.730469 358.644531 83.140625 C 356.714844 83.867188 350.671875 86.75 350.101562 87.222656 C 349.945312 87.347656 349.21875 87.792969 348.519531 88.171875 C 346.402344 89.34375 342.414062 92.316406 339.503906 94.878906 C 336.023438 97.917969 332.382812 102.1875 328.398438 107.789062 C 327.070312 109.65625 325.105469 113.136719 323.242188 116.964844 C 322.257812 118.957031 321.308594 120.855469 321.152344 121.140625 C 320.960938 121.457031 320.835938 121.835938 320.835938 122.027344 C 320.835938 122.21875 320.550781 122.945312 320.234375 123.703125 C 318.84375 126.679688 315.964844 136.074219 315.140625 140.0625 C 315.015625 140.855469 314.632812 142.5625 314.382812 143.859375 C 313.558594 147.6875 313.304688 149.238281 312.925781 151.929688 C 312.734375 153.320312 312.515625 154.871094 312.417969 155.410156 C 312.324219 155.914062 312.199219 157.339844 312.101562 158.574219 C 312.007812 159.773438 311.785156 161.863281 311.628906 163.160156 C 311.21875 166.292969 311.027344 186.953125 311.34375 193.378906 C 311.5 196.160156 311.753906 200.148438 311.945312 202.238281 C 312.132812 204.324219 312.355469 206.886719 312.449219 207.933594 C 312.546875 208.976562 312.703125 210.335938 312.800781 210.9375 C 312.863281 211.539062 313.019531 212.742188 313.117188 213.628906 C 313.210938 214.480469 313.398438 216.125 313.558594 217.265625 C 313.714844 218.40625 314 220.523438 314.191406 222.011719 C 314.414062 223.5 314.699219 225.300781 314.855469 226.03125 C 315.265625 227.929688 315.203125 229.605469 314.761719 229.605469 C 314.539062 229.605469 312.925781 229.097656 311.183594 228.464844 C 309.445312 227.867188 305.804688 226.632812 303.117188 225.746094 C 300.425781 224.859375 297.136719 223.785156 295.839844 223.371094 C 294.542969 222.929688 292.960938 222.421875 292.359375 222.265625 C 291.757812 222.105469 290.777344 221.855469 290.238281 221.664062 C 289.667969 221.503906 288.71875 221.253906 288.183594 221.09375 C 287.613281 220.90625 286.601562 220.621094 285.96875 220.460938 C 285.304688 220.273438 284.289062 219.988281 283.753906 219.828125 C 281.09375 219.070312 273.375 217.042969 271.476562 216.601562 C 270.683594 216.441406 269.546875 216.160156 268.945312 216 C 264.324219 214.894531 252.808594 212.644531 247.746094 211.886719 C 246.449219 211.695312 244.582031 211.414062 243.632812 211.253906 C 241.480469 210.90625 237.144531 210.367188 234.613281 210.148438 C 233.570312 210.050781 232.304688 209.925781 231.765625 209.832031 C 224.394531 208.847656 202.246094 209.039062 195.695312 210.113281 C 195.191406 210.210938 194.179688 210.335938 193.480469 210.429688 C 189.433594 210.9375 181.523438 212.613281 178.292969 213.628906 C 177.597656 213.816406 176.394531 214.195312 175.605469 214.417969 C 174.8125 214.671875 174.054688 214.925781 173.863281 215.050781 C 173.707031 215.144531 172.980469 215.429688 172.28125 215.652344 C 171.585938 215.875 170.734375 216.160156 170.382812 216.316406 C 170.035156 216.476562 169.117188 216.855469 168.328125 217.171875 C 167.535156 217.488281 165.195312 218.59375 163.105469 219.671875 C 148.394531 227.105469 137.667969 238.875 131.5625 254.285156 C 127.921875 263.492188 126.625 270.167969 126.625 279.914062 C 126.59375 290.515625 128.777344 300.542969 133.269531 310.605469 C 134.125 312.535156 136.910156 318.136719 137.574219 319.308594 C 139.472656 322.597656 140.230469 323.800781 142.507812 327.21875 C 144.976562 330.917969 147.855469 334.8125 150.449219 337.941406 C 156.335938 345.0625 165.890625 354.746094 172.757812 360.535156 C 186.804688 372.367188 198.417969 380.5 215.695312 390.65625 C 218.699219 392.398438 221.992188 394.261719 223.035156 394.800781 C 224.078125 395.339844 225.089844 395.941406 225.25 396.160156 C 225.503906 396.445312 224.015625 397.710938 219.492188 401.128906 C 212.023438 406.730469 199.90625 416.347656 198.386719 417.867188 C 198.292969 417.960938 197.3125 418.816406 196.171875 419.765625 C 195.03125 420.714844 193.957031 421.632812 193.765625 421.824219 C 193.578125 421.980469 192.597656 422.835938 191.550781 423.722656 C 189.652344 425.335938 184.527344 429.921875 181.140625 433.054688 C 178.230469 435.710938 169.117188 444.699219 163.929688 449.980469 C 150.546875 463.554688 137.636719 478.808594 126.625 493.960938 C 124.347656 497.09375 122.226562 500.007812 121.878906 500.449219 C 121.214844 501.335938 115.140625 510.414062 112.894531 513.894531 C 110.964844 516.871094 105.140625 526.648438 103.621094 529.398438 C 102.957031 530.601562 101.789062 532.753906 101.058594 534.144531 C 100.300781 535.539062 98.277344 539.523438 96.535156 543.003906 C 90.714844 554.839844 89.066406 558.699219 84.195312 572.019531 C 82.644531 576.324219 78.5625 590.625 78.058594 593.628906 C 77.960938 594.136719 77.519531 596.414062 77.078125 598.691406 C 76.253906 603.058594 76.128906 603.789062 75.621094 608.027344 C 75.429688 609.515625 75.242188 610.9375 75.179688 611.191406 C 75.082031 611.445312 74.925781 613.4375 74.765625 615.621094 C 74.292969 622.960938 74.511719 632.898438 75.304688 637.769531 C 76.445312 645.015625 76.792969 646.722656 77.804688 650.425781 C 79.007812 654.917969 80.746094 659.441406 83.054688 664.1875 C 89.132812 676.65625 97.578125 685.863281 108.402344 691.90625 C 110.234375 692.917969 111.816406 693.773438 111.882812 693.773438 C 111.945312 693.773438 112.957031 694.214844 114.128906 694.753906 C 120.140625 697.507812 129.566406 699.785156 138.269531 700.640625 C 143.238281 701.113281 159.027344 700.859375 161.367188 700.257812 C 161.621094 700.195312 162.632812 700.039062 163.582031 699.941406 C 169.277344 699.34375 180.351562 697.128906 187.628906 695.195312 C 193.734375 693.550781 204.554688 690.070312 208.765625 688.363281 C 210.535156 687.636719 210.949219 687.476562 211.992188 687.128906 C 212.59375 686.90625 213.542969 686.558594 214.046875 686.335938 C 214.585938 686.085938 216.136719 685.453125 217.527344 684.914062 C 220.566406 683.710938 223.667969 682.382812 226.800781 680.925781 C 228.097656 680.324219 229.203125 679.851562 229.300781 679.851562 C 229.585938 679.851562 247.050781 671.117188 249.800781 669.632812 C 251.195312 668.839844 252.964844 667.890625 253.757812 667.480469 C 254.546875 667.070312 255.246094 666.65625 255.339844 666.5625 C 255.433594 666.46875 255.941406 666.183594 256.445312 665.929688 C 256.984375 665.675781 258.789062 664.632812 260.496094 663.652344 C 262.175781 662.640625 263.722656 661.816406 263.882812 661.816406 C 264.074219 661.816406 264.199219 661.65625 264.199219 661.5 C 264.199219 661.308594 264.324219 661.183594 264.453125 661.183594 C 264.671875 661.183594 267.394531 659.632812 271.285156 657.226562 C 271.855469 656.878906 273.121094 656.089844 274.132812 655.488281 C 279.386719 652.261719 296.820312 640.523438 302.042969 636.660156 C 303.464844 635.617188 306.4375 633.402344 308.6875 631.757812 C 314.160156 627.738281 319.128906 623.847656 330.011719 615.082031 C 331.183594 614.132812 339.0625 607.550781 339.1875 607.425781 C 339.28125 607.300781 340.925781 605.875 342.824219 604.230469 C 344.757812 602.585938 346.464844 601.097656 346.65625 600.90625 C 346.84375 600.75 348.488281 599.230469 350.292969 597.585938 C 352.097656 595.941406 354.660156 593.566406 355.988281 592.363281 C 359.753906 588.882812 375.667969 572.875 379.84375 568.316406 C 385.035156 562.6875 387.375 560.058594 392.28125 554.300781 C 394.210938 552.054688 395.414062 550.851562 395.601562 551.042969 C 395.761719 551.199219 396.015625 552.53125 396.171875 553.984375 C 396.929688 561.324219 397.4375 565.4375 398.671875 574.171875 C 398.863281 575.375 399.113281 577.335938 399.273438 578.507812 C 399.460938 579.707031 399.746094 581.574219 399.9375 582.714844 C 400.792969 587.871094 400.917969 588.664062 401.203125 590.148438 C 402.183594 595.878906 402.753906 598.820312 403.671875 603.28125 C 403.859375 604.070312 404.144531 605.496094 404.335938 606.445312 C 404.523438 607.394531 404.90625 609.101562 405.191406 610.242188 C 405.441406 611.382812 405.789062 612.929688 405.980469 613.722656 C 406.171875 614.511719 406.421875 615.652344 406.582031 616.253906 C 406.738281 616.855469 407.023438 618.058594 407.246094 618.941406 C 407.4375 619.796875 407.722656 620.9375 407.847656 621.472656 C 408.003906 621.980469 408.257812 622.992188 408.449219 623.6875 C 411.644531 635.679688 416.707031 651.28125 419.269531 656.976562 C 419.585938 657.734375 419.871094 658.527344 419.871094 658.746094 C 419.871094 658.96875 419.996094 659.285156 420.125 659.441406 C 420.28125 659.632812 420.597656 660.265625 420.820312 660.867188 C 421.074219 661.46875 421.644531 662.859375 422.148438 663.96875 C 422.625 665.042969 423.035156 666.023438 423.035156 666.121094 C 423.035156 666.5 428.886719 678.175781 430.628906 681.273438 C 433.507812 686.402344 433.730469 686.78125 436.578125 691.082031 C 442.96875 700.796875 449.644531 708.613281 457.046875 715.128906 C 464.324219 721.523438 472.902344 726.902344 481.191406 730.191406 C 481.570312 730.351562 482.203125 730.601562 482.613281 730.761719 C 483.5 731.140625 486.664062 732.152344 488.53125 732.691406 C 489.320312 732.914062 490.304688 733.199219 490.746094 733.324219 C 491.1875 733.449219 492.390625 733.734375 493.433594 733.957031 C 494.480469 734.148438 495.902344 734.429688 496.597656 734.589844 C 503.8125 736.140625 518.113281 736.109375 526.5 734.558594 C 531.277344 733.640625 536.085938 732.40625 538.679688 731.425781 C 539.03125 731.265625 540.167969 730.855469 541.210938 730.476562 C 547.730469 728.039062 556.210938 723.039062 561.777344 718.359375 C 564.214844 716.269531 570.195312 710.320312 572.441406 707.695312 C 577.347656 701.9375 581.996094 694.785156 586.140625 686.652344 C 588.609375 681.8125 590.160156 678.460938 591.710938 674.535156 C 591.871094 674.15625 592.121094 673.523438 592.28125 673.113281 C 593.417969 670.390625 595.917969 663.050781 597.214844 658.652344 C 598.449219 654.539062 600.316406 647.324219 601.011719 643.9375 C 602.5 636.945312 602.785156 635.617188 602.945312 634.605469 C 603.039062 634.003906 603.226562 632.929688 603.386719 632.230469 C 603.542969 631.535156 603.828125 629.890625 604.019531 628.59375 C 604.210938 627.296875 604.492188 625.429688 604.652344 624.480469 C 605.726562 617.742188 607.183594 604.515625 607.65625 596.953125 C 607.785156 595.308594 607.910156 593.503906 607.972656 592.996094 C 608.828125 586.195312 608.796875 543.828125 607.972656 534.144531 C 607.878906 533.261719 607.753906 531.265625 607.65625 529.714844 C 607.089844 519.84375 606.171875 509.53125 605.125 501.398438 C 604.589844 496.9375 604.304688 494.816406 604.144531 493.960938 C 604.050781 493.425781 603.925781 492.445312 603.828125 491.746094 C 603.765625 491.050781 603.542969 489.691406 603.386719 488.742188 C 602.753906 485.199219 602.058594 480.640625 601.996094 480.039062 C 601.960938 479.28125 602.152344 479.28125 611.929688 479.757812 C 621.800781 480.199219 645.625 479.976562 648.664062 479.40625 C 648.949219 479.34375 650.722656 479.21875 652.621094 479.089844 C 654.519531 478.996094 656.417969 478.839844 656.859375 478.773438 C 657.300781 478.710938 658.664062 478.554688 659.863281 478.457031 C 661.097656 478.363281 662.429688 478.207031 662.871094 478.140625 C 663.3125 478.046875 664.390625 477.921875 665.242188 477.824219 C 667.140625 477.605469 669.074219 477.351562 670.148438 477.191406 C 671.253906 477.035156 673.691406 476.65625 674.261719 476.558594 C 674.515625 476.527344 675.367188 476.371094 676.160156 476.277344 C 677.519531 476.054688 679.230469 475.738281 682.644531 475.105469 C 684.132812 474.820312 684.765625 474.660156 688.4375 473.839844 C 696.347656 472.066406 708.71875 468.238281 712.324219 466.433594 C 712.832031 466.183594 713.402344 465.960938 713.527344 465.960938 C 714.097656 465.960938 722.164062 462.070312 725.203125 460.359375 C 732.480469 456.214844 737.511719 452.449219 742.796875 447.167969 C 745.925781 444.035156 749.472656 439.636719 751.402344 436.535156 C 752.320312 435.046875 755.734375 428.308594 755.957031 427.519531 C 756.085938 427.167969 756.464844 426.03125 756.84375 424.988281 C 758.109375 421.601562 758.773438 418.878906 759.753906 412.804688 C 760.199219 410.117188 760.292969 401.257812 759.914062 398.410156 C 759.5 395.464844 758.773438 392.015625 757.792969 388.601562 C 757.035156 385.878906 754.40625 379.425781 753.015625 376.894531 C 746.085938 364.171875 738.207031 354.996094 724.09375 343.226562 C 720.296875 340.09375 711.058594 333.734375 705.996094 330.824219 C 705.425781 330.476562 704.476562 329.96875 703.941406 329.621094 C 703.371094 329.304688 702.261719 328.671875 701.472656 328.199219 C 699.859375 327.25 686.792969 320.730469 686.507812 320.730469 C 686.410156 320.730469 685.429688 320.320312 684.324219 319.8125 C 678.882812 317.34375 666.542969 312.789062 663.34375 312.03125 C 663.1875 311.996094 662.808594 311.902344 662.554688 311.808594 C 662.046875 311.617188 658.15625 310.480469 656.226562 309.972656 C 654.867188 309.59375 650.785156 308.484375 649.171875 308.042969 C 648.507812 307.882812 648 307.601562 648.0625 307.441406 C 648.125 307.285156 649.234375 306.050781 650.53125 304.6875 C 666.507812 288.109375 684.324219 265.644531 694.386719 249.382812 C 694.921875 248.496094 696.21875 246.40625 697.296875 244.699219 C 698.371094 242.988281 699.257812 241.535156 699.257812 241.4375 C 699.257812 241.34375 699.699219 240.648438 700.207031 239.890625 C 700.746094 239.128906 701.15625 238.433594 701.15625 238.339844 C 701.15625 238.242188 701.597656 237.421875 702.167969 236.503906 C 704.414062 232.738281 711.3125 219.257812 712.988281 215.367188 C 713.335938 214.578125 714.003906 213.058594 714.507812 211.949219 C 714.984375 210.875 715.394531 209.894531 715.394531 209.832031 C 715.394531 209.734375 715.648438 209.070312 715.996094 208.3125 C 716.3125 207.582031 717.039062 205.78125 717.609375 204.292969 C 718.148438 202.804688 718.75 201.320312 718.90625 200.972656 C 719.03125 200.621094 719.855469 198.1875 720.710938 195.59375 C 722.511719 190.117188 723.050781 188.28125 723.875 184.835938 C 724.0625 184.136719 724.347656 183 724.507812 182.304688 C 724.695312 181.605469 725.011719 180.183594 725.203125 179.140625 C 725.394531 178.09375 725.675781 176.671875 725.835938 175.976562 C 727.925781 166.261719 728.113281 151.546875 726.308594 142.4375 C 722.988281 125.824219 714.253906 113.042969 699.414062 103.136719 C 696.851562 101.429688 695.777344 100.796875 691.03125 98.234375 C 688.058594 96.589844 680.398438 93.898438 675.875 92.886719 C 665.84375 90.640625 653.316406 90.480469 641.511719 92.476562 C 634.617188 93.644531 625.945312 95.988281 618.289062 98.804688 C 616.613281 99.40625 614.902344 100.070312 614.460938 100.257812 C 614.019531 100.449219 613.386719 100.703125 613.035156 100.828125 C 612.6875 100.988281 611.867188 101.304688 611.234375 101.585938 C 608.132812 102.917969 607.5625 103.136719 606.390625 103.675781 C 604.429688 104.53125 595.507812 108.960938 593.734375 109.941406 C 591.363281 111.238281 587.21875 113.546875 586.140625 114.179688 C 585.636719 114.496094 584.558594 115.097656 583.769531 115.542969 C 579.023438 118.261719 571.714844 122.976562 565.070312 127.628906 C 563.394531 128.832031 561.113281 130.414062 560.007812 131.203125 C 552.128906 136.675781 538.207031 147.847656 527.765625 156.957031 C 516.183594 167.117188 497.613281 185.214844 489.195312 194.546875 C 487.042969 196.953125 485.175781 198.914062 485.050781 198.914062 C 484.957031 198.914062 484.449219 197.585938 483.976562 195.972656 C 483.46875 194.390625 482.171875 190.339844 481.0625 187.050781 C 478.4375 179.171875 478.40625 179.042969 477.710938 177.492188 C 477.394531 176.734375 477.140625 176.039062 477.140625 175.910156 C 477.140625 175.660156 475.527344 171.386719 474.765625 169.648438 C 474.515625 169.109375 473.882812 167.558594 473.34375 166.167969 C 472.804688 164.773438 471.984375 162.875 471.570312 161.957031 C 471.160156 161.039062 470.8125 160.25 470.8125 160.1875 C 470.8125 160.027344 469.039062 156.230469 466.539062 150.980469 C 464.390625 146.421875 459.800781 137.972656 457.144531 133.578125 C 456.195312 131.996094 455.214844 130.378906 454.960938 129.9375 C 454.738281 129.527344 454.359375 128.988281 454.136719 128.765625 C 453.949219 128.546875 453.664062 128.070312 453.566406 127.722656 C 453.472656 127.375 453.21875 127.089844 453.0625 127.089844 C 452.902344 127.089844 452.777344 126.933594 452.777344 126.742188 C 452.777344 126.457031 451.035156 123.671875 450.59375 123.292969 C 450.5 123.199219 449.769531 122.21875 449.011719 121.078125 C 448.222656 119.9375 447.492188 118.957031 447.398438 118.863281 C 447.304688 118.769531 446.859375 118.199219 446.449219 117.597656 C 441.925781 111.015625 431.167969 99.785156 423.984375 94.152344 C 415.378906 87.414062 404.589844 82.003906 396.296875 80.261719 C 395.253906 80.039062 393.988281 79.753906 393.449219 79.628906 C 390.097656 78.742188 383.640625 78.394531 378.105469 78.742188 Z M 387.3125 147.402344 C 387.472656 147.71875 387.597656 148.195312 387.597656 148.449219 C 387.597656 148.699219 387.722656 149.175781 387.914062 149.492188 C 388.070312 149.777344 388.578125 151.105469 388.988281 152.402344 C 389.433594 153.699219 390.222656 155.976562 390.761719 157.464844 C 391.332031 158.953125 392.089844 161.070312 392.5 162.210938 C 393.640625 165.4375 395 169.046875 396.296875 172.335938 C 396.929688 173.980469 397.5625 175.625 397.722656 175.976562 C 398.101562 177.019531 398.578125 178.09375 399.273438 179.675781 C 399.652344 180.5 399.9375 181.320312 399.9375 181.449219 C 399.9375 181.605469 400.128906 182.144531 400.378906 182.652344 C 400.632812 183.15625 401.042969 184.105469 401.328125 184.738281 C 401.613281 185.402344 402.058594 186.480469 402.34375 187.113281 C 402.625 187.777344 403.039062 188.726562 403.257812 189.265625 C 403.703125 190.308594 404.492188 192.113281 405.253906 193.851562 C 406.707031 197.207031 412.59375 209.039062 414.238281 212.046875 C 418.128906 219.039062 418.667969 219.921875 422.023438 224.984375 C 432.433594 240.679688 443.03125 250.773438 455.464844 256.816406 C 459.042969 258.558594 465.054688 260.773438 468.28125 261.5 C 475.683594 263.207031 479.132812 263.621094 486.949219 263.621094 C 494.953125 263.621094 498.5625 263.269531 506.089844 261.847656 C 510.332031 261.023438 516.976562 259.316406 519.539062 258.398438 C 525.265625 256.34375 529.539062 254.695312 532.667969 253.335938 C 536.371094 251.722656 546.117188 246.882812 548.964844 245.203125 C 549.753906 244.761719 551.019531 244.035156 551.8125 243.589844 C 557.917969 240.207031 569.847656 232.390625 577.441406 226.820312 C 583.546875 222.328125 593.832031 214.449219 595.066406 213.34375 C 595.253906 213.152344 596.234375 212.363281 597.214844 211.570312 C 599.683594 209.609375 610.855469 200.339844 611.296875 199.863281 C 611.390625 199.769531 612.46875 198.851562 613.667969 197.808594 C 614.902344 196.761719 615.949219 195.84375 616.042969 195.75 C 616.136719 195.65625 617.972656 194.011719 620.15625 192.113281 C 622.339844 190.179688 624.269531 188.472656 624.460938 188.316406 C 624.648438 188.125 626.074219 186.859375 627.625 185.46875 C 631.800781 181.703125 642.714844 171.640625 645.785156 168.730469 C 647.273438 167.304688 651.386719 163.382812 654.960938 159.964844 C 663.789062 151.515625 664.769531 150.628906 664.769531 151.105469 C 664.769531 151.261719 663.3125 153.226562 661.542969 155.441406 C 658.25 159.617188 650.910156 168.824219 649.960938 169.964844 C 648.855469 171.324219 628.445312 196.984375 626.925781 198.914062 C 619.175781 208.914062 608.605469 223.339844 603.796875 230.554688 C 600.191406 235.996094 592.945312 247.703125 592.945312 248.117188 C 592.945312 248.210938 592.597656 248.84375 592.152344 249.507812 C 589.242188 254.128906 582.503906 268.648438 580.730469 274.21875 C 580.480469 275.011719 580.128906 275.925781 580.003906 276.277344 C 579.308594 277.890625 577.410156 284.785156 576.808594 287.667969 C 576.617188 288.710938 576.332031 290.132812 576.175781 290.832031 C 575.351562 294.816406 575.101562 298.074219 575.101562 304.753906 C 575.101562 311.617188 575.195312 312.980469 576.207031 318.042969 C 577.472656 324.496094 579.972656 331.046875 583.707031 337.660156 C 585.542969 340.949219 585.667969 341.140625 588.578125 345.253906 C 593.894531 352.78125 601.613281 360.691406 610.820312 368.035156 C 614.746094 371.164062 625.535156 378.632812 626.136719 378.632812 C 626.324219 378.632812 626.484375 378.757812 626.484375 378.949219 C 626.484375 379.109375 626.640625 379.265625 626.832031 379.265625 C 627.023438 379.265625 627.78125 379.675781 628.539062 380.214844 C 629.300781 380.722656 629.996094 381.164062 630.058594 381.164062 C 630.15625 381.164062 631.167969 381.734375 632.304688 382.429688 C 634.269531 383.632812 648.664062 390.972656 649.042969 390.972656 C 649.140625 390.972656 650.4375 391.542969 651.921875 392.238281 C 653.410156 392.933594 654.707031 393.503906 654.800781 393.503906 C 654.898438 393.503906 655.65625 393.789062 656.480469 394.167969 C 657.300781 394.546875 658.25 394.960938 658.597656 395.085938 C 658.949219 395.210938 659.738281 395.5625 660.339844 395.8125 C 661.445312 396.320312 662.871094 396.859375 666.035156 397.996094 C 666.984375 398.34375 668.058594 398.757812 668.40625 398.882812 C 670.621094 399.800781 680.273438 402.996094 685.335938 404.484375 C 685.714844 404.578125 685.714844 404.671875 685.367188 404.863281 C 684.957031 405.117188 682.898438 405.085938 680.273438 404.769531 C 679.480469 404.671875 677.582031 404.515625 676 404.421875 C 674.453125 404.324219 672.585938 404.199219 671.886719 404.105469 C 671.191406 404.007812 668.566406 403.851562 666.035156 403.753906 C 663.503906 403.660156 661.320312 403.472656 661.164062 403.375 C 660.71875 403.121094 633.351562 403.058594 629.648438 403.3125 C 627.8125 403.472656 625.058594 403.660156 623.476562 403.753906 C 621.929688 403.882812 620.125 404.039062 619.523438 404.105469 C 618.921875 404.199219 617.71875 404.324219 616.832031 404.421875 C 615.980469 404.515625 614.902344 404.640625 614.460938 404.738281 C 614.019531 404.800781 612.878906 404.957031 611.929688 405.085938 C 607.308594 405.589844 599.621094 407.234375 592.152344 409.324219 C 578.390625 413.152344 563.011719 421.570312 552.917969 430.839844 C 546.84375 436.441406 540.105469 444.253906 536.308594 450.140625 C 536.148438 450.394531 535.675781 451.121094 535.296875 451.722656 C 534.882812 452.324219 533.933594 453.90625 533.175781 455.203125 C 532.417969 456.5 531.46875 458.082031 531.085938 458.683594 C 529.285156 461.5625 523.84375 473.394531 522.542969 477.191406 C 522.261719 478.078125 521.847656 479.1875 521.59375 479.722656 C 520.773438 481.621094 517.988281 490.292969 516.847656 494.59375 C 515.648438 499.058594 514.414062 503.898438 514.128906 505.351562 C 513.96875 506.207031 513.683594 507.566406 513.496094 508.359375 C 513.335938 509.148438 513.117188 510.195312 513.019531 510.730469 C 512.925781 511.238281 512.734375 512.25 512.578125 512.945312 C 512.136719 515.097656 511.660156 517.566406 511.121094 520.699219 C 509.507812 530.347656 507.863281 545.378906 507.324219 555.027344 C 507.230469 556.769531 507.007812 559.902344 506.851562 561.988281 C 506.441406 566.703125 506.25 600.339844 506.566406 609.765625 C 506.914062 619.449219 507.199219 625.398438 507.515625 628.910156 C 507.738281 631.125 507.707031 631.980469 507.421875 632.230469 C 507.230469 632.390625 507.136719 632.421875 507.261719 632.265625 C 507.390625 632.136719 507.324219 631.632812 507.136719 631.15625 C 506.851562 630.429688 506.472656 628.59375 505.269531 621.472656 C 504.824219 618.941406 504.476562 617.109375 504.066406 614.828125 C 503.84375 613.785156 503.558594 612.140625 503.371094 611.191406 C 503.210938 610.242188 502.960938 608.816406 502.800781 608.027344 C 502.644531 607.234375 502.359375 605.75 502.136719 604.703125 C 501.914062 603.660156 501.628906 602.238281 501.503906 601.539062 C 501.1875 600.085938 500.746094 597.839844 500.269531 595.371094 C 500.078125 594.421875 499.796875 592.996094 499.605469 592.207031 C 499.414062 591.414062 499.128906 590.054688 498.972656 589.199219 C 498.8125 588.316406 498.53125 587.050781 498.371094 586.351562 C 498.214844 585.65625 497.929688 584.296875 497.707031 583.347656 C 497.484375 582.398438 497.199219 581.101562 497.074219 580.5 C 496.949219 579.898438 496.664062 578.664062 496.472656 577.808594 C 496.28125 576.925781 495.839844 575.027344 495.492188 573.539062 C 495.144531 572.050781 494.574219 569.648438 494.226562 568.160156 C 493.878906 566.671875 492.960938 562.972656 492.167969 559.933594 C 491.347656 556.894531 490.367188 553.097656 489.953125 551.546875 C 487.421875 541.738281 481.855469 524.402344 478.246094 515.003906 C 477.078125 511.902344 476.886719 511.429688 475.90625 509.246094 C 475.527344 508.421875 475.242188 507.664062 475.242188 507.566406 C 475.242188 507.472656 474.925781 506.714844 474.578125 505.890625 C 474.199219 505.070312 473.628906 503.769531 473.28125 502.980469 C 471.476562 498.960938 470.96875 497.886719 469.925781 495.703125 C 467.933594 491.652344 464.800781 485.894531 462.492188 482.097656 C 458.945312 476.242188 457.398438 474.0625 452.617188 467.953125 C 451.226562 466.152344 443 457.890625 440.753906 456.058594 C 436.578125 452.578125 428.761719 447.925781 424.140625 446.183594 C 417.78125 443.78125 413.449219 442.703125 407.054688 441.914062 C 404.144531 441.566406 391.964844 441.753906 390.128906 442.167969 C 389.335938 442.355469 387.722656 442.671875 386.488281 442.863281 C 382.027344 443.621094 377.597656 444.824219 371.144531 447.039062 C 367.886719 448.179688 364.121094 449.664062 360.070312 451.46875 C 357.886719 452.449219 346.339844 458.144531 346.148438 458.335938 C 346.054688 458.460938 345.421875 458.808594 344.722656 459.191406 C 343.332031 459.917969 342.097656 460.613281 339.566406 462.132812 C 338.648438 462.671875 337.761719 463.113281 337.605469 463.113281 C 337.414062 463.113281 337.289062 463.238281 337.289062 463.429688 C 337.289062 463.585938 337.128906 463.746094 336.972656 463.746094 C 336.78125 463.746094 335.800781 464.285156 334.757812 464.949219 C 333.746094 465.582031 331.53125 466.972656 329.851562 468.015625 C 319.222656 474.628906 304.574219 485.007812 291.09375 495.511719 C 286.820312 498.835938 276.316406 507.1875 274.480469 508.707031 C 274.132812 508.992188 270.875 511.714844 267.203125 514.75 C 263.566406 517.789062 257.015625 523.292969 252.648438 527.027344 C 245.910156 532.816406 243.125 535.222656 235.5625 541.867188 C 232.148438 544.871094 222.65625 553.320312 221.484375 554.429688 C 220.691406 555.15625 219.269531 556.453125 218.289062 557.308594 C 216.738281 558.636719 206.171875 568.191406 202.183594 571.832031 C 200.726562 573.128906 193.449219 579.773438 192.816406 580.339844 C 192.3125 580.785156 190.507812 582.429688 183.925781 588.503906 C 180.761719 591.414062 178.074219 593.789062 177.976562 593.789062 C 177.410156 593.789062 177.820312 593.28125 182.027344 588.601562 C 183.292969 587.207031 184.558594 585.785156 184.875 585.4375 C 185.191406 585.054688 185.921875 584.265625 186.457031 583.664062 C 187.660156 582.335938 197.5625 571.261719 198.734375 569.898438 C 199.621094 568.886719 202.308594 565.820312 203.890625 564.046875 C 205.03125 562.75 208.667969 558.574219 209.683594 557.402344 C 210.03125 556.960938 212.246094 554.394531 214.585938 551.707031 C 216.894531 549.015625 220.21875 545.09375 221.957031 543.003906 C 223.699219 540.917969 225.1875 539.144531 225.28125 539.050781 C 225.375 538.957031 226.070312 538.101562 226.863281 537.152344 C 227.652344 536.203125 228.351562 535.347656 228.445312 535.253906 C 228.792969 534.96875 239.582031 521.617188 243.949219 516.109375 C 254.453125 502.855469 266.160156 486.84375 273.375 475.863281 C 275.621094 472.414062 277.582031 469.441406 277.710938 469.25 C 277.867188 469.09375 278.183594 468.585938 278.4375 468.144531 C 278.660156 467.734375 280.304688 465.042969 282.042969 462.164062 C 285.589844 456.277344 285.398438 456.625 288.625 450.613281 C 291.378906 445.550781 296.789062 434.414062 296.789062 433.84375 C 296.789062 433.75 297.074219 432.992188 297.453125 432.167969 C 298.277344 430.300781 298.464844 429.859375 299.320312 427.519531 C 299.699219 426.472656 300.144531 425.335938 300.269531 424.988281 C 300.425781 424.636719 300.808594 423.5 301.15625 422.457031 C 303.71875 414.480469 304.382812 411.730469 305.804688 402.839844 C 306.851562 396.226562 306.503906 384.582031 305.015625 378.160156 C 304.855469 377.460938 304.605469 376.261719 304.414062 375.46875 C 304.066406 373.917969 303.179688 371.039062 302.324219 368.824219 C 296.3125 353.097656 284.640625 338.671875 265.148438 322.914062 C 261.035156 319.589844 252.332031 313.167969 248.0625 310.289062 C 246.417969 309.183594 244.867188 308.105469 244.644531 307.882812 C 244.457031 307.664062 243.980469 307.378906 243.632812 307.285156 C 243.285156 307.1875 243 306.96875 243 306.808594 C 243 306.652344 242.714844 306.429688 242.367188 306.335938 C 242.019531 306.238281 241.542969 305.953125 241.355469 305.765625 C 241.132812 305.542969 240.375 305.003906 239.675781 304.5625 C 227.085938 296.460938 224.648438 294.945312 214.082031 288.617188 C 210.441406 286.433594 207.371094 284.660156 207.277344 284.660156 C 207.152344 284.660156 206.582031 284.25 205.980469 283.710938 C 204.683594 282.605469 205.125 282.667969 208.511719 284.121094 C 209.113281 284.375 210.980469 285.136719 212.625 285.769531 C 214.269531 286.402344 215.980469 287.097656 216.421875 287.253906 C 218.003906 287.917969 218.511719 288.109375 220.535156 288.773438 C 221.675781 289.152344 222.875 289.566406 223.222656 289.722656 C 224.648438 290.355469 233.917969 293.296875 239.992188 295.070312 C 244.171875 296.273438 253.597656 298.550781 258.34375 299.5 C 263.441406 300.511719 264.136719 300.605469 267.488281 301.113281 C 268.691406 301.304688 269.957031 301.492188 270.335938 301.589844 C 270.71875 301.652344 271.761719 301.808594 272.710938 301.90625 C 273.660156 302 274.734375 302.125 275.082031 302.222656 C 275.464844 302.285156 276.824219 302.410156 278.121094 302.539062 C 279.417969 302.632812 280.777344 302.757812 281.125 302.820312 C 282.328125 303.042969 290.96875 303.421875 295.207031 303.421875 C 299.351562 303.453125 307.957031 303.074219 309.222656 302.820312 C 309.570312 302.757812 310.648438 302.632812 311.628906 302.539062 C 312.609375 302.441406 313.75 302.285156 314.191406 302.222656 C 314.632812 302.125 315.488281 302 316.089844 301.90625 C 329.347656 299.847656 341.242188 295.542969 351.210938 289.152344 C 356.714844 285.640625 363.265625 279.882812 367.472656 274.882812 C 373.296875 267.921875 377.0625 261.722656 381.109375 252.230469 C 382.09375 249.949219 384.148438 244.035156 384.78125 241.789062 C 384.90625 241.25 385.191406 240.269531 385.382812 239.574219 C 385.574219 238.875 385.890625 237.769531 386.046875 237.105469 C 386.207031 236.472656 386.488281 235.332031 386.679688 234.574219 C 386.839844 233.84375 387.121094 232.613281 387.28125 231.820312 C 387.40625 231.03125 387.691406 229.542969 387.882812 228.5 C 388.894531 223.308594 389.273438 220.492188 389.8125 213.976562 C 389.96875 211.761719 390.191406 209.796875 390.285156 209.640625 C 390.507812 209.292969 390.507812 183.03125 390.285156 182.082031 C 390.191406 181.671875 389.96875 179.359375 389.8125 176.925781 C 389.273438 169.804688 389.210938 168.824219 388.863281 166.101562 C 388.671875 164.648438 388.386719 162.304688 388.230469 160.882812 C 387.628906 156.007812 386.773438 150.347656 386.269531 148.066406 C 385.855469 146.167969 386.171875 144.746094 386.710938 146.074219 C 386.902344 146.515625 387.15625 147.117188 387.3125 147.402344 Z M 387.3125 147.402344 "/></g></svg>