<svg xmlns="http://www.w3.org/2000/svg" xmlns:xlink="http://www.w3.org/1999/xlink" width="1080" zoomAndPan="magnify" viewBox="0 0 810 809.999993" height="1080" preserveAspectRatio="xMidYMid meet" version="1.2"><defs><clipPath id="1b11ce6487"><path d="M 0 393 L 380 393 L 380 737 L 0 737 Z M 0 393 "/></clipPath><clipPath id="496c24a447"><path d="M -146.457031 737.71875 L -202.417969 646.222656 L 333.101562 318.675781 L 389.0625 410.167969 Z M -146.457031 737.71875 "/></clipPath><clipPath id="aad14f98b3"><path d="M -146.457031 737.71875 L -202.417969 646.222656 L 333.101562 318.675781 L 389.0625 410.167969 Z M -146.457031 737.71875 "/></clipPath><clipPath id="d34fe82c6b"><path d="M 0 388 L 399 388 L 399 810 L 0 810 Z M 0 388 "/></clipPath><clipPath id="94e2631875"><path d="M 212.59375 282.488281 L 586.421875 494.472656 L 294.894531 1008.566406 L -78.933594 796.582031 Z M 212.59375 282.488281 "/></clipPath><clipPath id="1e91048e6c"><path d="M 212.59375 282.488281 L 586.421875 494.472656 L 294.894531 1008.566406 L -78.933594 796.582031 Z M 212.59375 282.488281 "/></clipPath><clipPath id="e6115fb40d"><path d="M 414 67 L 810 67 L 810 410 L 414 410 Z M 414 67 "/></clipPath><clipPath id="b566d4a87f"><path d="M 940.71875 65.832031 L 996.679688 157.328125 L 461.160156 484.875 L 405.199219 393.382812 Z M 940.71875 65.832031 "/></clipPath><clipPath id="e4c231a9a4"><path d="M 940.71875 65.832031 L 996.679688 157.328125 L 461.160156 484.875 L 405.199219 393.382812 Z M 940.71875 65.832031 "/></clipPath><clipPath id="92e259b207"><path d="M 395 0 L 810 0 L 810 416 L 395 416 Z M 395 0 "/></clipPath><clipPath id="c995fcbc0a"><path d="M 581.671875 521.0625 L 207.84375 309.074219 L 499.371094 -205.019531 L 873.199219 6.96875 Z M 581.671875 521.0625 "/></clipPath><clipPath id="f550ca7fa8"><path d="M 581.671875 521.0625 L 207.84375 309.074219 L 499.371094 -205.019531 L 873.199219 6.96875 Z M 581.671875 521.0625 "/></clipPath><clipPath id="659aba7da9"><path d="M 212.625 212.625 L 597.375 212.625 L 597.375 597.375 L 212.625 597.375 Z M 212.625 212.625 "/></clipPath><clipPath id="b061fb0d00"><path d="M 237.5625 237.5625 L 572.8125 237.5625 L 572.8125 572.8125 L 237.5625 572.8125 Z M 237.5625 237.5625 "/></clipPath><clipPath id="f22fb1f41a"><path d="M 395.59375 395.59375 L 414.34375 395.59375 L 414.34375 414.34375 L 395.59375 414.34375 Z M 395.59375 395.59375 "/></clipPath></defs><g id="2c2ba28683"><rect x="0" width="810" y="0" height="809.999993" style="fill:#ffffff;fill-opacity:1;stroke:none;"/><rect x="0" width="810" y="0" height="809.999993" style="fill:#000000;fill-opacity:1;stroke:none;"/><g clip-rule="nonzero" clip-path="url(#1b11ce6487)"><g clip-rule="nonzero" clip-path="url(#496c24a447)"><g clip-rule="nonzero" clip-path="url(#aad14f98b3)"><path style=" stroke:none;fill-rule:nonzero;fill:#dddac5;fill-opacity:1;" d="M 378.964844 395.132812 C 378.9375 395.082031 378.90625 395.035156 378.882812 395 C 378.15625 393.808594 376.652344 393.324219 375.347656 393.890625 L -199.121094 644.40625 C -199.863281 644.730469 -200.4375 645.359375 -200.6875 646.140625 C -200.925781 646.914062 -200.820312 647.757812 -200.394531 648.457031 L -147.449219 735.019531 C -147.050781 735.667969 -146.402344 736.132812 -145.675781 736.296875 C -144.945312 736.460938 -144.15625 736.324219 -143.511719 735.914062 L 378.003906 398.824219 C 379.238281 398.039062 379.65625 396.425781 378.964844 395.132812 Z M 378.964844 395.132812 "/></g></g></g><g clip-rule="nonzero" clip-path="url(#d34fe82c6b)"><g clip-rule="nonzero" clip-path="url(#94e2631875)"><g clip-rule="nonzero" clip-path="url(#1e91048e6c)"><path style=" stroke:none;fill-rule:nonzero;fill:#dddac5;fill-opacity:1;" d="M 387.246094 445.964844 L 392.910156 417.011719 L 398.570312 388.0625 C 239.460938 524.140625 80.355469 660.214844 -78.753906 796.292969 C 45.914062 866.855469 170.585938 937.414062 295.253906 1007.976562 C 325.917969 820.640625 356.582031 633.300781 387.246094 445.964844 "/></g></g></g><g clip-rule="nonzero" clip-path="url(#e6115fb40d)"><g clip-rule="nonzero" clip-path="url(#b566d4a87f)"><g clip-rule="nonzero" clip-path="url(#e4c231a9a4)"><path style=" stroke:none;fill-rule:nonzero;fill:#dddac5;fill-opacity:1;" d="M 415.296875 408.417969 C 415.324219 408.46875 415.355469 408.515625 415.378906 408.550781 C 416.105469 409.742188 417.609375 410.226562 418.914062 409.660156 L 993.382812 159.144531 C 994.128906 158.820312 994.699219 158.191406 994.949219 157.410156 C 995.1875 156.636719 995.082031 155.792969 994.65625 155.09375 L 941.710938 68.53125 C 941.3125 67.882812 940.664062 67.417969 939.9375 67.253906 C 939.207031 67.089844 938.417969 67.226562 937.773438 67.632812 L 416.257812 404.726562 C 415.023438 405.511719 414.605469 407.125 415.296875 408.417969 Z M 415.296875 408.417969 "/></g></g></g><g clip-rule="nonzero" clip-path="url(#92e259b207)"><g clip-rule="nonzero" clip-path="url(#c995fcbc0a)"><g clip-rule="nonzero" clip-path="url(#f550ca7fa8)"><path style=" stroke:none;fill-rule:nonzero;fill:#dddac5;fill-opacity:1;" d="M 407.019531 357.585938 L 401.355469 386.535156 L 395.695312 415.488281 C 554.804688 279.410156 713.910156 143.332031 873.019531 7.257812 C 748.351562 -63.304688 623.679688 -133.867188 499.011719 -204.425781 C 468.347656 -17.089844 437.683594 170.25 407.019531 357.585938 "/></g></g></g><g clip-rule="nonzero" clip-path="url(#659aba7da9)"><path style=" stroke:none;fill-rule:nonzero;fill:#000000;fill-opacity:1;" d="M 405 597.375 C 299.191406 597.375 212.625 510.804688 212.625 405 C 212.625 299.191406 299.191406 212.625 405 212.625 C 510.804688 212.625 597.375 299.191406 597.375 405 C 597.375 510.804688 510.804688 597.375 405 597.375 Z M 405 597.375 "/></g><g clip-rule="nonzero" clip-path="url(#b061fb0d00)"><path style=" stroke:none;fill-rule:nonzero;fill:#e64325;fill-opacity:1;" d="M 405 572.4375 C 312.910156 572.4375 237.5625 497.089844 237.5625 405 C 237.5625 312.910156 312.910156 237.5625 405 237.5625 C 497.089844 237.5625 572.4375 312.910156 572.4375 405 C 572.4375 497.089844 497.089844 572.4375 405 572.4375 Z M 405 572.4375 "/></g><g clip-rule="nonzero" clip-path="url(#f22fb1f41a)"><path style=" stroke:none;fill-rule:nonzero;fill:#dddac5;fill-opacity:1;" d="M 404.96875 414.34375 C 399.8125 414.34375 395.59375 410.125 395.59375 404.96875 C 395.59375 399.8125 399.8125 395.59375 404.96875 395.59375 C 410.125 395.59375 414.34375 399.8125 414.34375 404.96875 C 414.34375 410.125 410.125 414.34375 404.96875 414.34375 Z M 404.96875 414.34375 "/></g></g></svg>